<?xml version="1.0" encoding="UTF-8"?>
<svg version="1.1" viewBox="0 0 2048 2048" width="512" height="512" xmlns="http://www.w3.org/2000/svg">
<path transform="translate(285,159)" d="m0 0h1476l25 2 18 4 17 6 17 8 14 9 14 11 17 17 11 15 10 17 8 19 5 18 3 20 1 24v981l-1 2h-1792l-1-1v-997l2-20 5-22 8-20 8-15 8-12 9-11 6-7 8-7 9-8 18-12 16-8 19-7 19-4zm384 321-9 2-9 6-6 7-3 6-1 5v13l4 9 6 8 70 70-1 5-73 73-5 9-1 4v13l4 10 5 7 9 6 6 2h13l10-4 8-6v-2l4-2 20-20v-2l4-2v-2l4-2 4-4v-2l4-2v-2l4-2 27-27 4 2 71 71 7 5 9 3h11l11-4 8-7 5-7 2-6v-14l-4-10-9-10-4-5-4-4h-2v-2h-2v-2l-8-7-27-27-5-6-8-7-8-8 2-6 4-2 68-68 5-8 2-6v-14l-4-10-8-9-11-5-12-1-10 3-9 7-72 72-4-2-7-8h-2l-2-4h-2l-2-4h-2v-2h-2v-2h-2l-2-4h-2v-2h-2v-2h-2v-2h-2v-2h-2v-2h-2v-2h-2l-2-4h-2l-2-4h-2l-2-4h-2l-2-4h-2l-2-4h-2l-2-4h-2l-2-4h-2l-2-4-11-8-7-3zm512 0-9 2-9 6-6 7-3 6-1 5v13l4 9 6 8 70 70-1 5-73 73-5 10-1 4v12l4 10 5 7 7 5 9 3h11l11-4 8-6v-2h2v-2h2v-2l4-2 8-8v-2l4-2 4-4v-2l4-2v-2l4-2v-2l4-2v-2l4-2v-2l4-2v-2l4-2 23-23 4 2 71 71 10 6 6 2h12l12-5 8-8 4-8 1-3v-15l-6-12-10-10-5-6-7-6-32-32-5-6-8-7-8-8 2-6 4-2 68-68 5-8 2-6v-14l-4-10-8-9-11-5-12-1-10 3-9 7-72 72-4-2-7-8h-2l-2-4h-2l-2-4h-2v-2h-2v-2h-2l-2-4h-2v-2h-2v-2h-2v-2h-2v-2h-2v-2h-2v-2h-2l-2-4h-2l-2-4h-2l-2-4h-2l-2-4h-2l-2-4h-2l-2-4h-2l-2-4h-2l-2-4-11-8-7-3zm-164 320-28 2-25 4-23 6-18 6-15 6-16 8-18 10-12 8-16 12-13 11-13 12-7 7-7 8-13 16-14 21-12 21-11 25-6 17-6 21-5 26-3 34 1 13 4 11 7 8 10 5 3 1h13l10-4 6-4 6-8 3-9 1-9 1-20 5-29 5-17 8-22 12-23 7-11 14-19 15-16 7-6v-2l4-2 7-6 15-11 22-13 21-9 21-7 17-4 20-3 15-1h17l22 2 17 3 22 6 18 7 21 10 19 12 18 14 15 14 10 11 12 16 11 17 9 17 8 20 7 24 4 21 1 9 1 20 2 11 5 10 8 7 11 4h12l10-4 8-7 4-5 3-8v-27l-3-25-5-25-7-24-10-25-11-22-11-18-10-14-8-10-9-10-7-8-11-11-8-7-15-12-13-9-18-11-21-11-25-10-23-7-24-5-25-3-19-1z"/>
<path transform="translate(129,1375)" d="m0 0h1789l3 2-1 109-2 16-5 19-6 16-11 21-12 16-11 12-7 7-13 10-13 8-16 8-19 7-25 5-11 1h-1493l-23-3-20-6-18-8-16-9-14-11-12-11-11-12-11-16-9-16-8-21-4-16-2-14-1-14v-98zm192 97-13 2-9 6-6 7-4 11v12l3 9 7 9 6 4 10 3h139l9-3 9-7 5-8 2-6v-14l-4-10-8-9-8-4-11-2z"/>
<path transform="translate(840,1695)" d="m0 0h367l3 2 16 63 15 61v2h164l14 2 10 6 7 8 4 10v15l-6 12-9 8-13 4h-778l-11-4-9-8-6-12v-16l4-9 4-6 9-6 7-3 6-1h169l1-8 16-64 14-55z"/>
</svg>
